<?xml version="1.0" encoding="UTF-8"?>
<svg width="75px" height="75px" viewBox="0 0 75 75" version="1.1" xmlns="http://www.w3.org/2000/svg" xmlns:xlink="http://www.w3.org/1999/xlink">
    <!-- Generator: Sketch 50.2 (55047) - http://www.bohemiancoding.com/sketch -->
    <title>Home Insurance_badge-75px</title>
    <desc>Created with Sketch.</desc>
    <defs></defs>
    <g id="Page-1" stroke="none" stroke-width="1" fill="none" fill-rule="evenodd">
        <g id="Home-Insurance_badge">
            <g>
                <polygon id="Fill-1" fill="#F1F1F1" points="37.5000852 0.000213068182 8.52272727e-05 28.1252131 8.52272727e-05 74.9997869 37.3607386 74.9997869 74.9996591 74.9997869 74.9996591 28.1252131"></polygon>
                <polygon id="Fill-2" fill="#D7D7D7" points="37.5000852 0.000213068182 37.5000852 74.9997869 74.9996591 74.9997869 74.9996591 28.1252131"></polygon>
                <polygon id="Fill-3" fill="#106CB2" points="66.8671023 33.3160653 37.4999148 10.2271449 37.4999148 11.0794176 37.4999148 63.9203267 37.4999148 66.4771449 66.9033239 66.4771449"></polygon>
                <polygon id="Fill-4" fill="#0296C8" points="37.4999148 11.0795881 37.4999148 10.2273153 23.4983523 21.235696 23.5085795 19.2170881 14.4885511 19.2170881 14.4885511 28.3193608 8.13272727 33.3162358 8.09650568 66.4773153 19.1760511 66.4773153 19.1760511 44.3182244 30.2555966 44.3182244 30.2555966 66.4773153 37.4999148 66.4773153 37.4999148 63.9204972"></polygon>
                <polygon id="Fill-5" fill="#FFD900" points="19.1761364 66.4772727 30.2556818 66.4772727 30.2556818 44.3181818 19.1761364 44.3181818"></polygon>
                <polygon id="Fill-6" fill="#FFD900" points="45.5965909 55.3977273 56.6761364 55.3977273 56.6761364 44.3181818 45.5965909 44.3181818"></polygon>
            </g>
        </g>
    </g>
</svg>