<svg xmlns="http://www.w3.org/2000/svg" width="75" height="75"><g fill="none" fill-rule="evenodd"><path d="M-158 0h390v176h-390z"/><path d="M0 0h75v75H0z"/><g fill-rule="nonzero"><path fill="#D7D7D7" d="M75 37.5C75 58.21 58.21 75 37.5 75S0 58.21 0 37.5 16.79 0 37.5 0 75 16.79 75 37.5"/><path fill="#F1F1F1" d="M37.5 75C16.79 75 0 58.21 0 37.5S16.79 0 37.5 0v75"/></g><g fill-rule="nonzero" transform="translate(10.227 10.227)"><circle cx="27.273" cy="27.273" r="27.273" fill="#106CB2"/><path fill="#0296C8" d="M27.273 54.545C12.21 54.545 0 42.335 0 27.273 0 12.21 12.21 0 27.273 0v54.545"/></g><g fill-rule="nonzero"><g transform="translate(17.898 46.023)"><path fill="#FFD900" d="M36.435 3.872c0 .138-.096.25-.213.25H.213C.096 4.122 0 4.01 0 3.872c0-.137.096-.25.213-.25h36.009c.117 0 .213.113.213.25z"/><circle cx="34.943" cy="3.835" r="3.835" fill="#FFD900"/><path fill="#106CB2" d="M32.386 4.3l1.67 1.666h.001l3.443-3.4-.864-.861-2.575 2.542-.807-.804z"/></g><path fill="#FFD900" d="M18.662 39.63a1.11 1.11 0 0 0 .653-.192l12.777-9.254 8.65 4.379c.355.196.83.132 1.128-.127l14.262-10.289c.535-.388.715-1.232.36-1.818-.354-.586-1.125-.784-1.66-.395L41.164 31.9l-8.65-4.38a1.021 1.021 0 0 0-1.128.127l-13.37 9.578c-.535.388-.716 1.232-.361 1.818.236.39.592.586 1.007.588z"/><path fill="#106CB2" d="M23.02 41.69c-.699-.002-1.273.495-1.275 1.102l-.012 3.757c-.002.607.57 1.106 1.269 1.108.7.001 1.274-.495 1.276-1.102l.012-3.757c.002-.608-.57-1.106-1.27-1.108zm5.546-5.113c-.696-.002-1.267.541-1.269 1.207l-.024 8.658c-.002.666.566 1.212 1.263 1.214.696.002 1.267-.542 1.27-1.208l.024-8.657c.001-.666-.567-1.212-1.264-1.214zm5.54-3.41c-.696-.001-1.267.53-1.27 1.182l-.023 12.12c-.002.651.566 1.186 1.263 1.188.696.001 1.267-.53 1.269-1.182l.024-12.12c.002-.651-.566-1.186-1.263-1.188z"/><path fill="#0296C8" d="M47.737 41.69c-.7-.002-1.274.495-1.276 1.102l-.012 3.757c-.002.607.57 1.106 1.269 1.108.7.001 1.274-.495 1.276-1.102l.012-3.757c.002-.608-.57-1.106-1.269-1.108zm-5.534-5.113c-.696-.002-1.268.541-1.27 1.207l-.024 8.658c-.002.666.566 1.212 1.263 1.214.696.002 1.268-.542 1.27-1.208l.024-8.657c.002-.666-.566-1.212-1.263-1.214z"/><path fill="#FFD900" d="M56.037 26.847l.65-.425.415-4.503-4.463-1.464-.65.424z"/><path fill="#0296C8" d="M54.528 44.604l.02-10.248c.002-.652-.567-1.187-1.265-1.189-.697-.001-1.27.53-1.271 1.182l-.02 10.256a11.92 11.92 0 0 1 1.276-.074c.43 0 .848.03 1.26.073z"/></g></g></svg>